<?xml version="1.0" standalone="no"?>
<!DOCTYPE svg PUBLIC "-//W3C//DTD SVG 20010904//EN"
 "http://www.w3.org/TR/2001/REC-SVG-20010904/DTD/svg10.dtd">
<svg version="1.0" xmlns="http://www.w3.org/2000/svg"
 width="500.000000pt" height="500.000000pt" viewBox="0 0 500.000000 500.000000"
 preserveAspectRatio="xMidYMid meet">

<g transform="translate(0.000000,500.000000) scale(0.100000,-0.100000)"
fill="#000000" stroke="none">
<path d="M1096 3718 c-140 -317 -557 -1259 -626 -1413 -31 -71 -150 -340 -264
-596 l-206 -466 0 -77 0 -76 1363 0 c750 0 1366 2 1368 4 3 3 3 23 1 45 l-4
41 -804 0 c-442 0 -804 2 -804 4 0 8 48 117 375 856 153 345 429 970 612 1385
80 182 149 333 152 337 3 4 46 -97 95 -225 49 -128 135 -351 191 -497 57 -146
185 -479 286 -740 100 -261 195 -506 210 -545 26 -66 28 -69 37 -44 6 14 71
162 145 330 243 547 595 1344 697 1577 35 78 66 142 70 142 7 0 7 1 210 -530
82 -217 172 -451 200 -520 27 -69 128 -332 225 -585 98 -253 215 -559 262
-680 47 -121 91 -236 98 -255 13 -32 14 -25 14 93 1 143 15 94 -129 462 -68
173 -369 954 -470 1220 -38 99 -133 344 -211 545 -78 201 -146 380 -152 398
l-10 32 -554 0 c-518 0 -554 -1 -560 -17 -4 -10 -71 -164 -151 -343 -79 -179
-151 -341 -159 -360 l-15 -35 -30 75 c-16 41 -65 170 -109 285 -44 116 -96
252 -116 303 l-36 92 -552 0 -551 0 -98 -222z m1094 125 c0 -4 -86 -201 -191
-438 -105 -236 -207 -466 -226 -510 -19 -44 -46 -105 -60 -135 -14 -30 -73
-165 -133 -300 -187 -424 -381 -863 -409 -925 -15 -33 -56 -126 -92 -207 l-64
-148 -467 0 c-259 0 -468 4 -468 9 0 7 58 140 212 486 17 39 48 108 70 153 21
46 38 86 38 89 0 2 12 30 26 61 14 31 75 167 134 302 59 135 196 445 305 690
108 245 223 506 256 580 33 74 77 172 97 217 l37 83 468 0 c257 0 467 -3 467
-7z m1730 3 c0 -3 -71 -166 -159 -363 -274 -620 -608 -1375 -646 -1463 -21
-47 -39 -86 -40 -88 -5 -6 -435 1112 -435 1134 0 8 20 58 44 112 81 179 98
216 186 417 48 110 93 212 100 228 l13 27 469 0 c257 0 468 -2 468 -4z"/>
<path d="M2173 2852 c-62 -136 -179 -395 -262 -577 -82 -181 -197 -436 -256
-565 -59 -129 -109 -241 -112 -247 -4 -10 149 -13 746 -13 413 0 751 3 751 6
0 6 -251 561 -327 724 -14 30 -45 98 -68 150 -23 52 -98 219 -167 370 -69 151
-138 303 -153 338 -15 34 -30 62 -34 62 -3 0 -56 -112 -118 -248z m138 -613
c66 -33 124 -94 155 -162 40 -85 41 -195 3 -277 -32 -69 -99 -139 -164 -170
-71 -35 -189 -40 -266 -11 -139 53 -229 195 -217 344 16 199 187 332 391 305
31 -4 76 -17 98 -29z"/>
<path d="M2075 1897 c-60 -60 -59 -134 1 -186 64 -57 159 -38 199 39 44 85
-19 180 -117 180 -43 0 -55 -5 -83 -33z m135 -17 c0 -21 -24 -28 -35 -10 -8
14 3 30 21 30 8 0 14 -9 14 -20z m35 -75 c0 -26 -4 -30 -31 -33 -34 -3 -49 16
-38 50 4 15 13 18 37 16 28 -3 32 -7 32 -33z"/>
<path d="M3964 3044 c-14 -32 -45 -102 -69 -154 -23 -52 -99 -221 -170 -375
-70 -154 -136 -300 -148 -325 -11 -25 -89 -197 -173 -383 -85 -186 -154 -342
-154 -347 0 -6 274 -10 745 -10 457 0 745 4 745 9 0 6 -69 162 -154 348 -183
404 -150 331 -386 853 -106 234 -196 429 -201 434 -4 5 -20 -17 -35 -50z m183
-805 c61 -30 123 -91 153 -154 19 -39 26 -70 28 -137 4 -77 1 -93 -23 -147
-36 -80 -111 -150 -190 -180 -48 -18 -75 -22 -135 -19 -128 6 -229 70 -288
183 -24 44 -27 61 -27 150 0 117 18 166 89 238 98 101 263 129 393 66z"/>
<path d="M3926 1911 c-38 -26 -55 -57 -56 -104 0 -45 13 -74 48 -104 30 -27
98 -31 142 -8 80 41 78 177 -2 221 -34 20 -99 17 -132 -5z m94 -26 c0 -9 -7
-18 -16 -22 -18 -7 -39 11 -30 26 11 17 46 13 46 -4z m74 -27 c23 -38 -36 -77
-64 -43 -10 12 -10 21 -1 41 13 29 47 30 65 2z"/>
</g>
</svg>
